<svg width="36" height="36" viewBox="0 0 36 36" fill="none" xmlns="http://www.w3.org/2000/svg">
<path d="M18 13.5C15.5139 13.5 13.5 15.5146 13.5 18C13.5 20.4859 15.5147 22.5 18 22.5C20.486 22.5 22.5 20.4854 22.5 18C22.5 15.5141 20.4854 13.5 18 13.5ZM18 10.5C22.1406 10.5 25.5 13.8556 25.5 18C25.5 22.1407 22.1444 25.5 18 25.5C13.8593 25.5 10.5 22.1444 10.5 18C10.5 13.8593 13.8557 10.5 18 10.5ZM27.75 10.1237C27.75 11.1589 26.9088 11.9988 25.875 11.9988C24.8399 11.9988 24 11.1576 24 10.1237C24 9.08985 24.8411 8.25 25.875 8.25C26.9075 8.2487 27.75 9.08985 27.75 10.1237ZM18 6C14.2883 6 13.6833 6.00982 11.9569 6.0867C10.7808 6.14191 9.99233 6.3001 9.25977 6.5845C8.60877 6.83698 8.13917 7.13847 7.63881 7.63882C7.13654 8.1411 6.83559 8.60945 6.58413 9.26075C6.29907 9.99498 6.14093 10.7822 6.0867 11.9567C6.00908 13.6128 6 14.1916 6 18C6 21.7117 6.00983 22.3167 6.08669 24.0429C6.14193 25.2186 6.30033 26.0082 6.58404 26.739C6.83718 27.3909 7.13928 27.8616 7.63722 28.3596C8.14148 28.8632 8.61122 29.1651 9.25634 29.4141C9.99782 29.7007 10.7857 29.8591 11.9567 29.9133C13.6128 29.9908 14.1916 30 18 30C21.7118 30 22.3167 29.9901 24.0429 29.9133C25.2161 29.8582 26.0063 29.6994 26.739 29.4159C27.3891 29.1634 27.8613 28.8603 28.3596 28.3628C28.8639 27.8577 29.1653 27.3891 29.4146 26.7425C29.7005 26.0037 29.8592 25.2147 29.9133 24.0434C29.9909 22.3872 30 21.8083 30 18C30 14.2883 29.9901 13.6833 29.9133 11.9571C29.8581 10.7836 29.6993 9.99224 29.4155 9.25977C29.1636 8.61057 28.8611 8.13952 28.3611 7.63882C27.858 7.13572 27.3909 6.8354 26.7392 6.58413C26.0055 6.29931 25.2171 6.14094 24.0432 6.08671C22.3872 6.00907 21.8084 6 18 6ZM18 3C22.0749 3 22.5837 3.015 24.1838 3.09C25.7799 3.16375 26.8688 3.41625 27.825 3.7875C28.8137 4.16876 29.6487 4.68375 30.4824 5.51749C31.3149 6.35125 31.83 7.18875 32.2125 8.175C32.5824 9.13 32.835 10.22 32.91 11.8163C32.9813 13.4163 33 13.925 33 18C33 22.0751 32.985 22.5837 32.91 24.1837C32.8362 25.78 32.5824 26.8687 32.2125 27.825C31.8312 28.8138 31.3149 29.6487 30.4824 30.4825C29.6487 31.315 28.8099 31.83 27.825 32.2125C26.8688 32.5826 25.7799 32.835 24.1838 32.91C22.5837 32.9813 22.0749 33 18 33C13.925 33 13.4162 32.985 11.8163 32.91C10.22 32.8362 9.1325 32.5826 8.175 32.2125C7.18749 31.8312 6.35124 31.315 5.5175 30.4825C4.68375 29.6487 4.17 28.81 3.7875 27.825C3.41625 26.8687 3.165 25.78 3.09 24.1837C3.01875 22.5837 3 22.0751 3 18C3 13.925 3.015 13.4163 3.09 11.8163C3.16374 10.2188 3.41625 9.13125 3.7875 8.175C4.16874 7.1875 4.68375 6.35125 5.5175 5.51749C6.35124 4.68375 7.18875 4.17 8.175 3.7875C9.13125 3.41625 10.2188 3.165 11.8163 3.09C13.4162 3.01875 13.925 3 18 3Z" fill="white"/>
</svg>
