<svg width="36" height="36" viewBox="0 0 36 36" fill="none" xmlns="http://www.w3.org/2000/svg">
<path d="M29.4089 10.4922C29.2946 10.0454 28.9713 9.70832 28.6011 9.60432C27.9434 9.42093 24.75 9 18 9C11.25 9 8.05731 9.4211 7.39691 9.60485C7.03017 9.70685 6.70698 10.0439 6.59118 10.4922C6.42798 11.1288 6 13.7939 6 18C6 22.206 6.42798 24.8712 6.59163 25.5096C6.70542 25.9546 7.02867 26.2917 7.39729 26.3952C8.05731 26.5789 11.25 27 18 27C24.75 27 27.9434 26.5791 28.6031 26.3952C28.9698 26.2932 29.2931 25.9561 29.4089 25.5078C29.5721 24.8712 30 22.2 30 18C30 13.8 29.5721 11.1288 29.4089 10.4922ZM32.3148 9.74727C33 12.42 33 18 33 18C33 18 33 23.58 32.3148 26.2527C31.9331 27.731 30.819 28.8927 29.4069 29.2854C26.8442 30 18 30 18 30C18 30 9.16109 30 6.59309 29.2854C5.17572 28.8873 4.06172 27.7254 3.68514 26.2527C3 23.58 3 18 3 18C3 18 3 12.42 3.68514 9.74727C4.06694 8.26909 5.18096 7.10727 6.59309 6.71454C9.16109 6 18 6 18 6C18 6 26.8442 6 29.4069 6.71454C30.8243 7.11273 31.9383 8.27454 32.3148 9.74727ZM15 23.25L15 12.75L24 18L15 23.25Z" fill="white"/>
</svg>
